<svg xmlns="http://www.w3.org/2000/svg" version="1.1" xmlnsXlink="http://www.w3.org/1999/xlink" xmlnsSvgjs="http://svgjs.dev/svgjs" width="1000" height="305" viewBox="0 0 1000 305"><g transform="matrix(1,0,0,1,-0.6060606060606233,-0.5618160208963445)"><svg viewBox="0 0 396 121" data-background-color="#ffffff" preserveAspectRatio="xMidYMid meet" height="305" width="1000" xmlns="http://www.w3.org/2000/svg" xmlnsXlink="http://www.w3.org/1999/xlink"><defs></defs><g id="tight-bounds" transform="matrix(1,0,0,1,0.2400000000000091,0.22288438861789928)"><svg viewBox="0 0 395.52 120.55423122276423" height="120.55423122276423" width="395.52"><g><svg viewBox="0 0 638.8591189015415 194.72383176281315" height="120.55423122276423" width="395.52"><g transform="matrix(1,0,0,1,243.3391189015415,26.911904389795453)"><svg viewBox="0 0 395.52 140.90002298322224" height="140.90002298322224" width="395.52"><g><svg viewBox="0 0 395.52 140.90002298322224" height="140.90002298322224" width="395.52"><g><svg viewBox="0 0 395.52 140.90002298322224" height="140.90002298322224" width="395.52"><g transform="matrix(1,0,0,1,0,0)"><svg width="395.52" viewBox="3.552713678800501e-15 -34.95 217.54999999999998 73.7" height="140.90002298322224" data-palette-color="#8dbdff"><svg></svg><svg></svg><g class="undefined-text-0" data-fill-palette-color="primary" id="text-0"><path d="M19.1-2.15h11.3v2.15h-30.4v-2.15h11.3v-26.05h-9.9v-6.75h27.6v6.75h-9.9zM66.95-2.15h5.8v2.15h-13.15l-3.25-7.55h-14.65l-3.25 7.55h-13.15v-2.15h5.75l14.2-32.8h7.55zM53.4-14.4l-4.35-10.15-4.4 10.15zM67.1-2.15h4.85v-32.8h7.3l17.15 22.5v-22.5h7.8v32.8h4.85v2.15h-12.65l-16.65-21.9v21.9h-12.65zM145.05-2.15h5.8v2.15h-13.15l-3.25-7.55h-14.65l-3.25 7.55h-13.15v-2.15h5.75l14.2-32.8h7.55zM131.5-14.4l-4.35-10.15-4.4 10.15zM182.3-2.15h5.8v2.15h-13.15l-3.25-7.55h-14.65l-3.25 7.55h-13.15v-2.15h5.75l14.2-32.8h7.55zM168.75-14.4l-4.35-10.15-4.4 10.15zM204.35-2.15h13.05v2.15h-34.4v-2.15h13l-13.15-32.8h8.45l8.9 22.25 8.9-22.25h8.45z" data-fill-palette-color="primary" fill="#8dbdff" opacity="1"></path><path d="M34.95 3.8l-13.9 15.45 12.35 17.35h4.15v2.15h-11.7l-10.25-13.8-3.5 3.9v9.9h-12.1v-2.15h4.3v-32.8h7.8v14.35l13.2-14.35zM69.3 36.6h4.3v2.15h-12.1v-13.75h-13.9v13.75h-12.1v-2.15h4.3v-32.8h7.8v14.6h13.9v-14.6h7.8zM103.75 36.6h11.15v2.15h-41.3v-2.15h11.15c-2.733-1.567-4.893-3.717-6.48-6.45-1.58-2.733-2.37-5.767-2.37-9.1v0c0-5.133 1.767-9.427 5.3-12.88 3.533-3.447 7.883-5.17 13.05-5.17 5.167 0 9.517 1.723 13.05 5.17 3.533 3.453 5.3 7.747 5.3 12.88v0c0 3.333-0.8 6.367-2.4 9.1-1.6 2.733-3.75 4.883-6.45 6.45zM104.65 21.07c0-3.113-1-5.77-3-7.97-2-2.2-4.46-3.3-7.38-3.3-2.913 0-5.37 1.1-7.37 3.3-2 2.2-3 4.857-3 7.97 0 3.12 1 5.77 3 7.95 2 2.187 4.457 3.28 7.37 3.28 2.92 0 5.38-1.093 7.38-3.28 2-2.18 3-4.83 3-7.95zM133.3 36.6h9.4v2.15h-27.8v-2.15h5.95c-1.633-0.733-3.183-1.867-4.65-3.4v0l4.05-5.75c2.1 2.267 4.3 3.4 6.6 3.4v0c1.1 0 2.043-0.433 2.83-1.3 0.78-0.867 1.17-2.133 1.17-3.8v0-15.25h-10.35v-6.7h18.2v21.8c0 5.3-1.8 8.967-5.4 11z" data-fill-palette-color="secondary" fill="#77d4fc" opacity="1"></path></g></svg></g></svg></g></svg></g></svg></g><g><svg viewBox="0 0 227.9951663948074 194.72383176281315" height="194.72383176281315" width="227.9951663948074"><g><svg version="1.0" xmlns="http://www.w3.org/2000/svg" xmlns:xlink="http://www.w3.org/1999/xlink" x="0" y="0" viewBox="0 0 100 85.407" enable-background="new 0 0 100 85.407" xml:space="preserve" width="227.9951663948074" height="194.72383176281315" class="icon-icon-0" data-fill-palette-color="accent" id="icon-0"><path d="M100 42.672c0 4.26-1.67 8.128-4.385 11.008-0.466 6.078-4.317 11.208-9.685 13.521v0.057c-6.555 3.817-10.474 10.333-11.667 18.149h-6.061V67.275c0.04-5.652 1.818-9.271 5.544-11.504 1.363-0.784 2.602-1.681 3.658-2.675 2.766 0.994 5.214 2.942 6.771 5.714 0.324 0.545 0.903 0.852 1.477 0.852 0.278 0 0.568-0.068 0.829-0.222 0.83-0.455 1.125-1.488 0.659-2.306h-0.011c-1.744-3.102-4.396-5.391-7.407-6.754 1.545-2.375 2.403-5.203 2.363-8.6 0-0.017 0.023-0.034 0.023-0.057 0-1.534-0.227-3.027-0.636-4.431 3.539-0.676 6.657-2.471 8.952-5 0.636-0.698 0.59-1.772-0.114-2.397-0.699-0.63-1.755-0.574-2.38 0.108-2 2.176-4.698 3.664-7.765 4.073-2.465-4.567-7.049-7.81-12.422-8.401 0.358-2.897 1.664-5.481 3.629-7.447 0.648-0.659 0.648-1.734 0-2.387-0.659-0.665-1.75-0.665-2.408 0-2.516 2.518-4.198 5.88-4.618 9.624-6.311-0.795-11.173-6.152-11.184-12.674 0-0.926-0.767-1.698-1.676-1.698-0.96 0-1.71 0.772-1.71 1.698 0 1.102 0.108 2.153 0.318 3.187-2.392 2.069-5.368 3.114-8.35 3.114-1.471 0-2.948-0.261-4.339-0.767 0 0-0.023-0.006-0.04-0.011-1.715-0.619-3.289-1.604-4.652-2.967-0.653-0.659-1.732-0.659-2.397 0-0.665 0.659-0.665 1.729 0 2.393 1.397 1.392 2.971 2.471 4.646 3.249-0.335 4.22-2.789 7.85-6.22 9.889-1.982-3.011-4.964-5.396-8.628-6.561-0.915-0.284-1.863 0.21-2.153 1.102-0.25 0.892 0.205 1.841 1.108 2.119 2.721 0.863 4.908 2.539 6.481 4.675-1.056 0.284-2.141 0.437-3.294 0.437 0 0 0 0-0.018 0H22.05c-4.351 0-8.35 1.733-11.258 4.568-0.688 0.653-0.704 1.727-0.028 2.392 0.323 0.341 0.767 0.511 1.227 0.511 0.387 0 0.812-0.159 1.142-0.477 2.307-2.25 5.453-3.607 8.918-3.607h0.182 0.005 0.018c8.156 0 14.933-6.074 15.995-13.946 1.159 0.25 2.317 0.386 3.493 0.386 3.312 0 6.652-1.028 9.463-3.062 1.028 2.346 2.653 4.396 4.624 5.987-2.011 2.477-3.192 5.419-3.504 8.429-0.847-0.136-1.738-0.21-2.63-0.21-2.556 0-5.152 0.607-7.566 1.898-0.829 0.438-1.142 1.465-0.704 2.295 0.307 0.562 0.903 0.892 1.511 0.892 0.278 0 0.528-0.062 0.772-0.205 1.943-1.017 3.977-1.5 5.987-1.5 0.897 0 1.783 0.097 2.63 0.278 0.369 3.431 1.852 6.788 4.402 9.458 0.341 0.353 0.778 0.523 1.216 0.523 0.415 0 0.846-0.154 1.182-0.466 0.693-0.653 0.71-1.716 0.051-2.392h-0.011c-2.267-2.397-3.465-5.441-3.544-8.52 0-0.046 0.011-0.08 0-0.131 0-0.062 0-0.125 0-0.188 0-2.989 1.034-5.943 3.079-8.317 2.153 1.074 4.606 1.699 7.203 1.699 0 0 0.011 0.005 0.028 0.005 0 0 0.011 0 0.028 0 7.032 0.023 12.724 5.705 12.752 12.736-1.334-0.352-2.709-0.534-4.118-0.534-2.016 0-4.061 0.369-6.032 1.182-0.875 0.358-1.29 1.34-0.937 2.204 0.357 0.863 1.329 1.284 2.198 0.932 1.579-0.63 3.187-0.937 4.771-0.937 1.278 0 2.545 0.193 3.732 0.562-0.415 1.897-1.227 3.419-2.488 4.771-0.097 0.085-0.188 0.182-0.261 0.295-0.966 0.949-2.125 1.823-3.556 2.692-4.902 2.863-7.254 8.055-7.203 14.418v18.132h-5.783V68.161c0-6.333-3.97-12.339-8.969-14.475-2.386-0.926-4.874-2.477-6.686-4.505-2.584 1.755-5.686 2.789-9.021 2.789-3.346 0-6.447-1.017-9.014-2.76-2.556 1.681-5.641 2.664-8.94 2.664C7.333 51.875 0 44.524 0 35.464c0-6.772 4.095-12.583 9.958-15.083 1.585-7.227 7.986-12.634 15.688-12.634 0.409 0 0.784 0.034 1.165 0.057 2.903-4.243 7.782-7.027 13.309-7.027 2.738 0 5.306 0.682 7.561 1.897C50.225 0.982 53.269 0 56.546 0c4.209 0 8.043 1.642 10.917 4.306 1.204-0.29 2.448-0.46 3.749-0.46 6.504 0 12.127 3.914 14.638 9.52 6.601 2 11.406 8.124 11.406 15.372 0 1.454-0.193 2.857-0.551 4.192C98.762 35.635 100 39.009 100 42.672z" fill="#8dbdff" data-fill-palette-color="accent"></path></svg></g></svg></g></svg></g></svg><rect width="395.52" height="120.55423122276423" fill="none" stroke="none" visibility="hidden"></rect></g></svg></g></svg>